<svg id="Layer_1" data-name="Layer 1" xmlns="http://www.w3.org/2000/svg" viewBox="0 0 844.76 244.82"><defs><style>.cls-1{fill:#73000a;}.cls-2{fill:#fff;}</style></defs><title>grid_uofsc_primary_black_reverse_on_garnet</title><rect class="cls-1" width="844.76" height="244.82"/><rect class="cls-2" x="47.1" y="62.52" width="118.97" height="118.97" transform="translate(228.58 15.42) rotate(90)"/><rect x="51.6" y="67.02" width="109.96" height="109.96"/><path class="cls-2" d="M95.3,138.82l-7.09-3.47c-2.75-1.31-4.29-2.85-4.29-5.33,0-2.69,2.14-4.78,6.16-4.78a8.51,8.51,0,0,1,6.48,2.91l1.6,5.06h3.9v-8.58a22.11,22.11,0,0,0-11.38-3.19c-10.17,2.2-14.3,6.38-14.3,11.5,0,4.78,3.08,7.53,7.59,9.73l6.77,3.3c3.29,1.54,4.89,3.52,4.89,6.21,0,3.57-2.53,5.77-6.21,5.77a9.91,9.91,0,0,1-7.37-3.68l-1.87-5H75.5l1.21,8.9a20.78,20.78,0,0,0,11.77,3.74c10.06-2.47,15.12-6.38,15.12-12.64C103.6,144.59,101.46,141.79,95.3,138.82Zm12.12-56.73-5.77.15-6.48-.15-.25,2.33,4.25.65v19.84c0,6.12-2.79,9.71-8,9.71-5.36,0-8-3.59-8-9.61V85.07l3.69-.65-.25-2.33-8.15.15-6.83-.15-.25,2.33,4,.65V105c0,8,4,13.46,15.48,13.46,10.07-2.38,12.8-7,12.8-13.66V85.07l4-.65ZM115,109.37l2.47-1.05c5-2.13,7.67-5.76,7.67-10.47a7.14,7.14,0,0,0-7.44-7.52l-2.47,1.16c-4.9,2.24-7.67,5.8-7.67,10.51S111,109.37,115,109.37Zm1.16-16.5c2.28.49,3.82,2.4,3.82,6.17,0,3.07-1,6.7-3.48,7.89-2.24-.52-3.78-2.39-3.78-6.17C112.73,97.7,113.78,94.07,116.17,92.87Zm21.55-10.78-4.57,2.62c-1.9,1.08-2.84,3.36-3.21,5.38l-.23,1.31h-2L125.94,93l-.19.78h3.59l-2.88,16.38a7,7,0,0,1-1.38,3.29h-4.23l-.78,4.19h2.73l4.11-2.73c2.36-1.61,4.08-3.44,4.49-5.72l2.69-15.41h4l.41-2.16h-4.08l.6-3.44a4.63,4.63,0,0,1,1.2-2.51H141l.68-3.55Zm-4.67,72.46c-2,1.92-2.71,3.68-6.28,3.68-7.76,0-11-8-11-17.32,0-10.12,3.48-15.84,10.3-15.84,4.51,0,5.45,2.15,6.94,4.07l1.76,5.39h3.79v-9.4c-2.8-1.65-5.89-3.69-11.28-3.69-13.69,2.09-20.64,8.14-20.64,21.12,0,12.65,8.21,19.35,18.88,19.35a42.69,42.69,0,0,0,12.77-4l1.1-9.84h-3.69Z"/><path class="cls-2" d="M207.26,145.05a17.91,17.91,0,0,0,13.2,6.21c7.45,0,12-4.59,12-11.28,0-5.64-3.63-9.28-9.37-11.86l-11.57-5.35c-7.36-3.35-12.81-7.94-12.81-16.35,0-9.76,8.41-16.36,23.71-19.61a34.08,34.08,0,0,1,18.46,5.55v13.77h-5.64l-2.78-8.7a14.24,14.24,0,0,0-11.28-4.88c-7.27,0-11.47,3.92-11.47,9.56,0,4.78,3.34,7.84,8.32,10.14l11.66,5.26c8.89,4.2,14.25,9,14.15,18,0,9.85-7.26,17.69-25,21.71a32.77,32.77,0,0,1-20.08-6.5l-2.1-14.06H204Z"/><path class="cls-2" d="M294.63,130.43c0,14.91-9.85,23.89-24.38,26.47-12.53,0-21.42-11-21.42-24.27,0-15.11,9.85-23.9,24.38-26.58C285.74,106.05,294.63,117,294.63,130.43Zm-21.7,21.4c6.4,0,9.94-7.92,9.94-18.44,0-13.29-5.35-22.27-12.43-22.27-6.5,0-9.94,7.93-9.94,18.45C260.5,142,265.66,151.83,272.93,151.83Z"/><path class="cls-2" d="M341.71,142.85c0,3.92.48,5.45,1.25,7h4.39l.39,3.82L334,156.23l-2.78-8-13.67,8.7c-12.14,0-15-4-15-15.2V113.89l-6.12.48-.48-4.2,11.95-2.59,5.74-.38v34.31c0,4.59,1.91,6.69,6.31,6.69,2.58,0,5.83-1.91,9-4l1.82-1.25v-29l-5.36.48-.48-4.2L336,107.58l5.74-.38Z"/><path class="cls-2" d="M397.1,150.69l4.78,1.05-.48,3.82-9.56-.28-11.38.28-.48-3.82,6.12-1.05V95.25l-6.21.19-.48-3.82,12.43-2.87,5.26-.39v26.78l14.25-9.09c11.76,0,14.44,4.12,14.44,16.07v28.57l6.59,1.05-.48,3.82-11.37-.28-9.66.28-.48-3.82,4.3-1.05V121.16c0-4.49-2.1-6.5-5.64-6.5-2.77,0-6.12,2-9.37,4l-2.58,1.62Z"/><path class="cls-2" d="M513.52,134.72l-2.2,15.3c-5.45,2.48-13.49,5.83-22.67,7.17-14.53,0-32.24-11.86-32.24-34,0-21.86,15.7-33.6,34.63-36.34,9.66,0,16.75,4,21.24,7v14.44h-5.93l-3.06-9.08c-2.48-3.06-6.13-6.79-14-6.79-13.1,0-19.72,10-19.72,28.21,0,15.87,6.24,30.88,21.54,30.88,5.93,0,8.71-3.15,11.67-5.83l5-10.9Z"/><path class="cls-2" d="M537.49,106.05c12.72,0,16.35,3.26,16.35,15v23.5c0,4,.58,5.64,1.53,7.17h4.69l.47,3.82-14.15,1.34-3.06-8.22-11.18,8.22c-8.51,0-14.54-4.78-14.54-12.52a13.46,13.46,0,0,1,3.73-9.18l21.42-7V120.4c0-5.74-1-8.42-5.26-8.42a18.25,18.25,0,0,0-7,1.63L529,121.93h-9.85v-8Zm5.26,26.18-12.14,5a8.49,8.49,0,0,0-2,5.84c0,4.78,2.67,6.5,5.16,6.5a10.16,10.16,0,0,0,5.64-2.2l3.35-2.29Z"/><path class="cls-2" d="M579.58,120.87l10.52-14.34h9.55L597,117.72h-6.9c-2.29.67-5.74,3.54-8.32,6.5l-1.62,1.91V150.5l10.13.95-.48,4.11-14.91-.28-11.29.28-.47-3.82,6.21-1.05v-36.8l-6.21.48-.48-3.92,12-2.87,4.4-.38Z"/><path class="cls-2" d="M644.19,130.43c0,14.91-9.85,23.89-24.39,26.47-12.52,0-21.42-11-21.42-24.27,0-15.11,9.85-23.9,24.39-26.58C635.29,106.05,644.19,117,644.19,130.43Zm-21.71,21.4c6.41,0,9.95-7.92,9.95-18.44,0-13.29-5.36-22.27-12.44-22.27-6.5,0-9.94,7.93-9.94,18.45C610.05,142,615.21,151.83,622.48,151.83Z"/><path class="cls-2" d="M656.55,155.28l-11.38.28-.48-3.82,6.12-1.05V95.25l-6.21.19-.48-3.92,12.43-2.87,5.26-.38v62.42l6.6,1.05-.48,3.82Z"/><path class="cls-2" d="M684.57,155.28l-11.38.28-.48-3.82,6.22-1.05V113.8l-6.22.38-.48-3.82,12.44-2.78,5.25-.38v43.49l6.51,1.05-.48,3.82Zm-5.16-66,7.84-.57,2.87.57.57,5.83-1.15,5-7.74.58-2.87-.58-.58-5.83Z"/><path class="cls-2" d="M712.85,155.28l-11.38.28-.48-3.82,6.21-1.05v-36.8l-6.31.48-.47-3.92,12.43-2.87,4.87-.28.29,7.93,14.34-9.18c11.76,0,14.54,3.73,14.54,15.21v29.43l6.59,1.05-.47,3.82-11.38-.28-9.85.28-.48-3.82,4.4-1.05V121.16c0-4.49-2-6.5-5.74-6.5-3.15,0-6.21,2-9.27,4l-2.49,1.72v30.29l4.69,1.05-.48,3.82Z"/><path class="cls-2" d="M775.1,106.05c12.72,0,16.35,3.26,16.35,15v23.5c0,4,.58,5.64,1.53,7.17h4.69l.48,3.82L784,156.9l-3.06-8.22-11.18,8.22c-8.51,0-14.54-4.78-14.54-12.52a13.46,13.46,0,0,1,3.73-9.18l21.42-7V120.4c0-5.74-1-8.42-5.26-8.42a18.25,18.25,0,0,0-7,1.63l-1.53,8.32h-9.85v-8Zm5.26,26.18-12.14,5a8.49,8.49,0,0,0-2,5.84c0,4.78,2.68,6.5,5.16,6.5a10.16,10.16,0,0,0,5.64-2.2l3.35-2.29Z"/><path class="cls-2" d="M376.89,147.5a13.62,13.62,0,0,1-6,1.56c-3.63,0-5-2.77-5-5.83V111.89h11V107.2H365.78V95.44h-3.35l-7.36,6.6v4.59h-4.31l-3.54,3.63v1.63h7.66v32.3c0,9.27,3.83,12.71,13.48,12.71l7.91-4.32Z"/><path class="cls-2" d="M142.22,157.73l.68-.08v-3.33l-.78,0-.3.84h-.33V154l1.93,0,1.85,0v1.22H145l-.31-.84-.77,0v3.33l.66.08,0,.3-1.11,0-1.14,0Zm3.38,0,.47-.08v-3.32l-.49-.07,0-.3.59,0,1,0,1.18,2.83v.52l1.3-3.35.86,0,.7,0,0,.3-.48.07v3.32l.47.08,0,.3-.9,0-.92,0,0-.3.49-.08V155l.09-.7L148.54,158H148l-1.22-3-.18-.71v3.31l.48.08,0,.3-.68,0-.68,0Z"/></svg>